<svg viewBox="0 0 1080 1080" fill="none" xmlns="http://www.w3.org/2000/svg">      <defs>  <filter id="filter" x="-20%" y="-20%" width="140%" height="140%" filterUnits="objectBoundingBox" primitiveUnits="userSpaceOnUse" color-interpolation-filters="linearRGB">    <feMorphology operator="dilate" radius="20 20" in="SourceAlpha" result="morphology"/>    <feFlood flood-color="#ffffff" flood-opacity="1" result="flood"/>    <feComposite in="flood" in2="morphology" operator="in" result="composite"/>    <feMerge result="merge">          <feMergeNode in="composite" result="mergeNode"/>      <feMergeNode in="SourceGraphic" result="mergeNode1"/>      </feMerge>  </filter></defs>      <g id="notion-avatar" filter="url(#filter)">        <g id="notion-avatar-face" fill="#ffffff" transform="scale(-1,1) translate(-1080, 0)">      <!--?xml version="1.0" encoding="UTF-8"?-->    <title>Face/ 7</title>    <g id="Face/-7" stroke="none" stroke-width="1" fill-rule="evenodd" stroke-linecap="round" stroke-linejoin="round">        <path d="M532,379 C664.54834,379 772,486.45166 772,619 C772,751.54834 764.54834,919 572,919 C415.13263,919 351.668898,801.612202 313.752775,718.980575 L313.322946,718.989282 L312,719 C267.81722,719 232,683.18278 232,639 C232,599.134956 261.158843,566.080325 299.312086,560.00055 C325.599297,455.979213 419.809919,379 532,379 Z M295.858895,624.545187 L304.141105,655.454813" id="Path" stroke="#000000" stroke-width="24"/>    </g>    </g><g id="notion-avatar-nose" transform="scale(-1,1) translate(-1080, 0)">      <!--?xml version="1.0" encoding="UTF-8"?-->    <title>Nose/ 4</title>    <g id="Nose/-4" stroke="none" stroke-width="1" fill="none" fill-rule="evenodd" stroke-linecap="round" stroke-linejoin="round">        <path d="M636.843426,596.000252 C661.659687,637.453214 673.277876,666.226337 671.697992,682.319621 C670.118108,698.412905 655.181344,703.444023 626.8877,697.412976" id="Line" stroke="#000000" stroke-width="16" transform="translate(649.363766, 647.939652) rotate(1.032339) translate(-649.363766, -647.939652) "/>    </g>    </g><g id="notion-avatar-mouth" transform="scale(-1,1) translate(-1080, 0)">      <!--?xml version="1.0" encoding="UTF-8"?-->    <title>Mouth/ 10</title>    <g id="Mouth/-10" stroke="none" stroke-width="1" fill="none" fill-rule="evenodd" stroke-linecap="round" stroke-linejoin="round">        <path d="M549,759 C576.33038,765.666667 599.663714,769 619,769 C638.336286,769 655.002953,765.666667 669,759 C656.33038,792.333333 632.997047,809 599,809 C565.002953,809 548.336286,792.333333 549,759 Z" id="Path" stroke="#000000" stroke-width="16"/>    </g>    </g><g id="notion-avatar-eyes" transform="scale(-1,1) translate(-1080, 0)">      <!--?xml version="1.0" encoding="UTF-8"?-->    <title>Eyes/ 8</title>    <g id="Eyes/-8" stroke="none" stroke-width="1" fill="none" fill-rule="evenodd">        <path d="M570,516 C578.836556,516 586,526.745166 586,540 C586,553.254834 578.836556,564 570,564 C561.163444,564 554,553.254834 554,540 C554,526.745166 561.163444,516 570,516 Z M708,516 C716.836556,516 724,526.745166 724,540 C724,553.254834 716.836556,564 708,564 C699.163444,564 692,553.254834 692,540 C692,526.745166 699.163444,516 708,516 Z" id="Combined-Shape" fill="#000000"/>    </g>    </g><g id="notion-avatar-eyebrows" transform="scale(-1,1) translate(-1080, 0)">      <!--?xml version="1.0" encoding="UTF-8"?-->    <title>Eyebrows/ 0</title>    <g id="Eyebrows/-0" stroke="none" stroke-width="1" fill="none" fill-rule="evenodd" stroke-linecap="round" stroke-linejoin="round">        <g id="Group" transform="translate(525.000000, 492.000000)" stroke="#000000" stroke-width="16">            <path d="M0,16 C12.8888889,5.33333333 27.8888889,0 45,0 C62.1111111,0 77.1111111,5.33333333 90,16" id="Path"/>            <path d="M138,16 C150.888889,5.33333333 165.888889,0 183,0 C200.111111,0 215.111111,5.33333333 228,16" id="Path"/>        </g>    </g>    </g><g id="notion-avatar-glasses" transform="scale(-1,1) translate(-1080, 0)">      <!--?xml version="1.0" encoding="UTF-8"?-->    <title>Glasses/ 6</title>    <g id="Glasses/-6" stroke="none" stroke-width="1" fill="none" fill-rule="evenodd" stroke-linecap="round" stroke-linejoin="round">        <g id="Group" transform="translate(289.000000, 489.000000)" fill="#000000" stroke="#000000" stroke-width="4">            <path d="M507.197382,9.82478969 C513.43226,17.7007378 515.213654,62.5936419 486.711355,88.5842707 C469.404358,104.366146 429.38069,108.487745 402.985851,98.8230032 C386.082673,92.6337314 377.827731,74.7226245 375.444668,70.5905602 L375.374248,70.46959 C367.818365,57.6210186 359.693569,48.7969114 350.999861,43.9972684 C342.444422,48.7207266 334.439709,57.3419022 326.985986,69.8607952 L326.625752,70.46959 C324.338153,74.359588 316.088066,92.5712135 299.014149,98.8230032 C272.61931,108.487745 232.595642,104.366146 215.288645,88.5842707 C186.786346,62.5936419 188.56774,17.7007378 194.802618,9.82478969 C201.037496,1.94884159 243.790945,-3.56432208 278.528122,2.7364364 C313.265299,9.03719488 328.491531,25.281971 335.53272,27.9394703 C339.929408,29.5988766 344.89638,30.3949699 350.433636,30.3277503 L350.434736,30.3022547 L351,30.3179093 L351.565264,30.3022547 L351.566163,30.3277478 C357.1035,30.3949891 362.070539,29.5988966 366.46728,27.9394703 C373.508469,25.281971 388.734701,9.03719488 423.471878,2.7364364 C458.209055,-3.56432208 500.962504,1.94884159 507.197382,9.82478969 Z M209.053767,15.3379534 C189.458437,28.7270651 207.272374,75.1951589 225.977008,88.5842707 C244.681642,101.973382 289.216484,98.8230032 299.904846,91.7346499 C310.593209,84.6462966 334.642023,53.930099 326.625752,34.2402288 C318.60948,14.5503585 237.556067,1.16124678 209.053767,15.3379534 Z M492.946233,15.3379534 C464.443933,1.16124678 383.39052,14.5503585 375.374248,34.2402288 C367.357977,53.930099 391.406791,84.6462966 402.095154,91.7346499 C412.783516,98.8230032 457.318358,101.973382 476.022992,88.5842707 C494.727626,75.1951589 512.541563,28.7270651 492.946233,15.3379534 Z" id="Combined-Shape"/>            <polygon id="Path" points="199 20 4 52 0 61 199 41"/>        </g>    </g>    </g><g id="notion-avatar-hair" transform="scale(-1,1) translate(-1080, 0)">      <!--?xml version="1.0" encoding="UTF-8"?-->    <title>Hairstyle/ 6</title>    <g id="Hairstyle/-6" stroke="none" stroke-width="1" fill="none" fill-rule="evenodd" stroke-linecap="round" stroke-linejoin="round">        <path d="M279,719 L312,727 L361,805 C345.104968,795.793015 330.104968,783.793015 316,769 C301.895032,754.206985 289.561699,737.540318 279,719 Z M343,303 C367,222.333333 442.666667,202.333333 570,243 C761,304 782,471 782,496 C782,512.666667 778.333333,533.666667 771,559 L769.377742,556.788495 C742.968282,520.931086 720.842368,498.001587 703,488 C652.173973,459.509334 588.817434,464 549,464 C509.182566,464 428.104379,430.95793 412,428 C409.688334,427.575411 401.590927,431.429106 429,448 L430.116018,448.665115 C436.887544,452.645909 447.182205,457.757538 461,464 C447.596463,464.038164 432.312171,461.806007 415.147123,457.303529 L412.503541,456.598811 C395.711977,452.076418 384.642719,448.384272 379.295767,445.522372 L380.06813,448.7074 C388.26572,482.685415 392.364515,505.362636 392.364515,516.739062 C392.364515,528.232771 383.924355,572.72458 367.044035,650.214489 L366,655 C350.666667,619.666667 338.333333,596 329,584 C315,566 300.202254,555.429256 288,559 L287.245493,559.229979 C278.745889,561.917334 258.53666,571.367129 244,589 C238.749387,595.368958 233.08272,607.368958 227,625 L226.065502,623.594497 C212.50066,603.100798 205.145493,587.902633 204,578 C200.118123,544.441696 214.597053,517.355586 214,510 C210.524124,467.177849 188,403 244,358 L246.2348,356.214 C282.6516,327.271333 314.906667,309.533333 343,303 Z" id="Shape" stroke="#000000" stroke-width="12" fill="#000000"/>    </g>    </g><g id="notion-avatar-accessories" transform="scale(-1,1) translate(-1080, 0)">      <!--?xml version="1.0" encoding="UTF-8"?-->    <title>Accessories/ 0</title>    <g id="Accessories/-0" stroke="none" stroke-width="1" fill="none" fill-rule="evenodd"/>    </g><g id="notion-avatar-details" transform="scale(-1,1) translate(-1080, 0)">      <!--?xml version="1.0" encoding="UTF-8"?-->    <title>Details/ 0</title>    <g id="Details/-0" stroke="none" stroke-width="1" fill="none" fill-rule="evenodd"/>    </g><g id="notion-avatar-beard" transform="scale(-1,1) translate(-1080, 0)">      <!--?xml version="1.0" encoding="UTF-8"?-->    <title>Beard/ 2</title>    <g id="Beard/-2" stroke="none" stroke-width="1" fill="none" fill-rule="evenodd" stroke-linecap="round" stroke-linejoin="round">        <g id="Group" transform="translate(371.133645, 672.093579)" stroke="#000000" stroke-width="16">            <line x1="266.273341" y1="38.9064208" x2="266.273341" y2="62.9064208" id="Path" transform="translate(266.273341, 50.906421) rotate(5.000000) translate(-266.273341, -50.906421) "/>            <line x1="292.365079" y1="38.9064208" x2="292.365079" y2="62.9064208" id="Path" transform="translate(292.365079, 50.906421) scale(-1, 1) rotate(5.000000) translate(-292.365079, -50.906421) "/>            <line x1="239.557395" y1="40.9064208" x2="239.557395" y2="64.9064208" id="Path" transform="translate(239.557395, 52.906421) rotate(8.000000) translate(-239.557395, -52.906421) "/>            <line x1="319.081025" y1="41.9064208" x2="319.081025" y2="65.9064208" id="Path" transform="translate(319.081025, 53.906421) scale(-1, 1) rotate(8.000000) translate(-319.081025, -53.906421) "/>            <line x1="211.425951" y1="45.8073404" x2="210.217288" y2="63.4360151" id="Path" transform="translate(210.925951, 54.807340) rotate(16.000000) translate(-210.925951, -54.807340) "/>            <line x1="347.507476" y1="50.9064208" x2="347.507476" y2="70.9064208" id="Path" transform="translate(347.507476, 60.906421) scale(-1, 1) rotate(16.000000) translate(-347.507476, -60.906421) "/>            <line x1="181.844559" y1="48.1498621" x2="181.525756" y2="65.6629795" id="Path" transform="translate(182.025756, 56.662979) rotate(19.000000) translate(-182.025756, -56.662979) "/>            <line x1="151.490065" y1="56.7191175" x2="153.222458" y2="74.354276" id="Path" transform="translate(152.696414, 65.497522) rotate(22.000000) translate(-152.696414, -65.497522) "/>            <line x1="122.837706" y1="71.6204191" x2="126.780408" y2="96.0484158" id="Path" transform="translate(124.837706, 84.120419) rotate(22.000000) translate(-124.837706, -84.120419) "/>            <line x1="9.58948596" y1="-1.01442282" x2="5.14322409" y2="11.2015813" id="Path" transform="translate(7.500000, 5.000000) rotate(70.000000) translate(-7.500000, -5.000000) "/>            <line x1="13.9927886" y1="28.4091214" x2="12.0235844" y2="42.5908786" id="Path" transform="translate(13.004093, 35.351932) rotate(70.000000) translate(-13.004093, -35.351932) "/>            <line x1="20.9941812" y1="53.2957181" x2="18.8556925" y2="72.0949718" id="Path" transform="translate(19.994181, 62.795718) rotate(70.000000) translate(-19.994181, -62.795718) "/>            <line x1="28.866355" y1="80.9064208" x2="28.866355" y2="100.906421" id="Path" transform="translate(28.866355, 90.906421) rotate(70.000000) translate(-28.866355, -90.906421) "/>            <line x1="46.1997712" y1="108.632477" x2="50.981151" y2="128.886179" id="Path" transform="translate(48.481151, 118.386179) rotate(70.000000) translate(-48.481151, -118.386179) "/>            <line x1="66.8244792" y1="131.559139" x2="74.1692845" y2="150.617497" id="Path" transform="translate(70.669285, 140.617497) rotate(70.000000) translate(-70.669285, -140.617497) "/>            <line x1="86.8992094" y1="152.384454" x2="97.8335007" y2="167.428388" id="Path" transform="translate(92.333501, 159.428388) rotate(70.000000) translate(-92.333501, -159.428388) "/>            <line x1="114.53737" y1="164.254546" x2="129.592672" y2="175.956143" id="Path" transform="translate(122.092672, 169.956143) rotate(70.000000) translate(-122.092672, -169.956143) "/>            <line x1="146.238529" y1="168.970245" x2="160.954313" y2="178.099239" id="Path" transform="translate(153.454313, 173.099239) rotate(70.000000) translate(-153.454313, -173.099239) "/>            <line x1="174.944456" y1="168.32313" x2="191.788254" y2="177.489712" id="Path" transform="translate(183.288254, 172.489712) rotate(70.000000) translate(-183.288254, -172.489712) "/>            <line x1="204.9014" y1="169.192791" x2="223.711207" y2="173.460538" id="Path" transform="translate(214.271259, 171.040294) rotate(70.000000) translate(-214.271259, -171.040294) "/>            <line x1="234.714972" y1="164.529202" x2="250.464074" y2="165.163612" id="Path" transform="translate(242.733894, 164.396280) rotate(70.000000) translate(-242.733894, -164.396280) "/>            <line x1="260.929106" y1="154.234055" x2="276.136923" y2="153.384181" id="Path" transform="translate(268.630203, 154.095799) rotate(70.000000) translate(-268.630203, -154.095799) "/>            <line x1="286.892662" y1="141.146548" x2="301.056215" y2="139.152378" id="Path" transform="translate(294.049495, 140.363996) rotate(70.000000) translate(-294.049495, -140.363996) "/>        </g>    </g>    </g><g id="notion-avatar-halloween" transform="scale(-1,1) translate(-1080, 0)">    <!--?xml version="1.0" encoding="UTF-8"?-->    <title>halloween/ 0</title>    <g id="halloween/-0" stroke="none" stroke-width="1" fill="none" fill-rule="evenodd"/>  </g>      </g>      </svg>